<?xml version="1.0" encoding="iso-8859-1"?>
<!-- Generator: Adobe Illustrator 19.0.0, SVG Export Plug-In . SVG Version: 6.00 Build 0)  -->
<svg version="1.1" id="Capa_1" xmlns="http://www.w3.org/2000/svg" xmlns:xlink="http://www.w3.org/1999/xlink" x="0px" y="0px"
	 viewBox="0 0 392.8 392.8" style="enable-background:new 0 0 392.8 392.8;" xml:space="preserve">
<g>
	<polygon style="fill:#D9AC80;" points="196.4,0 292,49.2 388,98 292,147.2 196.4,196.4 100.8,147.2 4.8,98 100.8,49.2 	"/>
	<polygon style="fill:#D7BAA4;" points="316,179.6 316,135.2 268,159.6 268,204 294.4,171.6 	"/>
	<polygon style="fill:#A67E4F;" points="196.4,196.4 196.4,392.8 388,294.8 388,98 316,135.2 314.4,136 314.4,179.2 294.4,171.6 
		268,204 268,159.6 	"/>
	<polygon style="fill:#926E43;" points="196.4,392.8 196.4,196.4 100.8,147.2 4.8,98 4.8,294.8 	"/>
	<polygon style="fill:#F2D3BA;" points="76.8,61.2 268,159.6 314.4,136 316,135.2 124.8,36.8 100.8,49.2 	"/>
</g>
<g>
</g>
<g>
</g>
<g>
</g>
<g>
</g>
<g>
</g>
<g>
</g>
<g>
</g>
<g>
</g>
<g>
</g>
<g>
</g>
<g>
</g>
<g>
</g>
<g>
</g>
<g>
</g>
<g>
</g>
</svg>
